<svg xmlns="http://www.w3.org/2000/svg" viewBox="0 0 512 512" width="512" height="512">
  <defs>
    <linearGradient id="sparkGradient" x1="0%" y1="0%" x2="100%" y2="100%">
      <stop offset="0%" style="stop-color:#3b82f6;stop-opacity:1" />
      <stop offset="100%" style="stop-color:#8b5cf6;stop-opacity:1" />
    </linearGradient>
  </defs>
  <path d="M288 32c0-17.7-14.3-32-32-32s-32 14.3-32 32V240c0 8.8-7.2 16-16 16H48c-17.7 0-32 14.3-32 32s14.3 32 32 32H208c8.8 0 16 7.2 16 16V480c0 17.7 14.3 32 32 32s32-14.3 32-32V336c0-8.8 7.2-16 16-16H464c17.7 0 32-14.3 32-32s-14.3-32-32-32H304c-8.8 0-16-7.2-16-16V32z" fill="url(#sparkGradient)"/>
</svg>
